<?xml version="1.0" encoding="utf-8"?><!-- Generated by IcoMoon.io --><!DOCTYPE svg PUBLIC "-//W3C//DTD SVG 1.1//EN" "http://www.w3.org/Graphics/SVG/1.1/DTD/svg11.dtd"><svg version="1.1" xmlns="http://www.w3.org/2000/svg" xmlns:xlink="http://www.w3.org/1999/xlink" width="32" height="32" viewBox="0 0 32 32" data-tags="heart,plus,add,love,like"><g fill="#444" transform="scale(0.03125 0.03125)"><path d="M768 415.264c-123.712 0-224 101.056-224 225.76 0 71.040 32.64 134.304 83.488 175.712-65.792 48.8-115.488 79.616-115.488 79.616s-448-276.864-448-499.904c0-134.4 82.656-268.768 240-268.768 144 0 208 137.472 208 137.472s56-137.472 208-137.472 237.312 131.68 237.312 268.768c0 30.656-8.704 62.176-22.912 93.824-40.992-45.952-100.288-75.008-166.4-75.008zM768 447.488c106.016 0 192 86.624 192 193.504s-85.984 193.536-192 193.536c-106.048 0-192-86.656-192-193.536s85.952-193.504 192-193.504zM672 673.248h64v64.512h64v-64.512h64v-64.512h-64v-64.512h-64v64.512h-64v64.512z" /></g></svg>