<?xml version="1.0" encoding="UTF-8"?>
<!-- Generator: Adobe Illustrator 15.0.2, SVG Export Plug-In . SVG Version: 6.00 Build 0)  -->
<!DOCTYPE svg PUBLIC "-//W3C//DTD SVG 1.1//EN" "http://www.w3.org/Graphics/SVG/1.1/DTD/svg11.dtd">
<svg xmlns="http://www.w3.org/2000/svg" xmlns:xlink="http://www.w3.org/1999/xlink" version="1.1" id="Layer_1" x="0px" y="0px" width="55px" height="55px" viewBox="0 0 512 512" enable-background="new 0 0 512 512" xml:space="preserve">
<g>
	<path d="M256,0C114.625,0,0,114.625,0,256s114.625,256,256,256s256-114.625,256-256S397.375,0,256,0z M374.594,185.188   L251.969,372.609c-0.031,0.031-0.094,0.062-0.094,0.094c-0.641,0.953-0.992,2.047-1.797,2.953   c-1.117,1.219-2.555,1.844-3.836,2.781c-0.32,0.219-0.641,0.469-0.992,0.688c-1.984,1.25-4.031,2.094-6.273,2.625   c-0.734,0.203-1.406,0.391-2.18,0.531c-1.82,0.25-3.547,0.25-5.375,0.062c-1.281-0.094-2.492-0.266-3.742-0.594   c-1.281-0.344-2.461-0.875-3.68-1.469c-1.023-0.469-2.109-0.594-3.07-1.219c-0.703-0.438-1.086-1.141-1.695-1.688   c-0.258-0.219-0.578-0.281-0.836-0.5l-71.391-66.031c-9.086-8.406-9.633-22.594-1.25-31.641c8.383-9.062,22.562-9.641,31.648-1.25   l51.68,47.797l108.008-165.078c6.781-10.336,20.625-13.25,31-6.5C378.469,160.961,381.375,174.844,374.594,185.188z" fill="#FFFFFF"/>
</g>
</svg>
