<?xml version="1.0" encoding="UTF-8"?>
<!-- Generator: Adobe Illustrator 15.0.2, SVG Export Plug-In . SVG Version: 6.00 Build 0)  -->
<!DOCTYPE svg PUBLIC "-//W3C//DTD SVG 1.1//EN" "http://www.w3.org/Graphics/SVG/1.1/DTD/svg11.dtd">
<svg xmlns="http://www.w3.org/2000/svg" xmlns:xlink="http://www.w3.org/1999/xlink" version="1.1" id="Layer_1" x="0px" y="0px" width="55px" height="55px" viewBox="0 0 512 512" enable-background="new 0 0 512 512" xml:space="preserve">
<g>
	<path d="M256,0C114.616,0,0,114.616,0,256s114.616,256,256,256s256-114.616,256-256S397.384,0,256,0z M374.617,161.517   l-95.134,95.134l84.184,93.833c6.649,6.65,6.649,17.483,0,24.134c-6.667,6.649-17.483,6.649-24.134,0l-84.184-93.834   l-93.833,93.834c-6.65,6.649-17.475,6.649-24.133,0c-6.65-6.65-6.65-17.483,0-24.134l95.133-95.134l-84.175-93.833   c-6.658-6.65-6.658-17.475,0-24.133c6.658-6.65,17.475-6.65,24.133,0l84.176,93.833l93.833-93.833c6.65-6.65,17.483-6.65,24.134,0   C381.267,144.042,381.267,154.866,374.617,161.517z" fill="#FFFFFF"/>
</g>
</svg>
